<?xml version="1.0" encoding="utf-8" standalone="no"?>
<!DOCTYPE svg PUBLIC "-//W3C//DTD SVG 1.1//EN"
  "http://www.w3.org/Graphics/SVG/1.1/DTD/svg11.dtd">
<svg xmlns:xlink="http://www.w3.org/1999/xlink" width="424.864512pt" height="316.603094pt" viewBox="0 0 424.864512 316.603094" xmlns="http://www.w3.org/2000/svg" version="1.1">
 <metadata>
  <rdf:RDF xmlns:dc="http://purl.org/dc/elements/1.1/" xmlns:cc="http://creativecommons.org/ns#" xmlns:rdf="http://www.w3.org/1999/02/22-rdf-syntax-ns#">
   <cc:Work>
    <dc:type rdf:resource="http://purl.org/dc/dcmitype/StillImage"/>
    <dc:date>2024-06-12T11:14:53.268415</dc:date>
    <dc:format>image/svg+xml</dc:format>
    <dc:creator>
     <cc:Agent>
      <dc:title>Matplotlib v3.8.4, https://matplotlib.org/</dc:title>
     </cc:Agent>
    </dc:creator>
   </cc:Work>
  </rdf:RDF>
 </metadata>
 <defs>
  <style type="text/css">*{stroke-linejoin: round; stroke-linecap: butt}</style>
 </defs>
 <g id="figure_1">
  <g id="patch_1">
   <path d="M 0 316.603094 
L 424.864512 316.603094 
L 424.864512 0 
L 0 0 
z
" style="fill: #ffffff"/>
  </g>
  <g id="axes_1">
   <g id="patch_2">
    <path d="M 44.555938 277.111219 
L 309.515938 277.111219 
L 309.515938 10.999219 
L 44.555938 10.999219 
z
" style="fill: #ffffff"/>
   </g>
   <g id="matplotlib.axis_1">
    <g id="xtick_1">
     <g id="line2d_1">
      <path d="M 44.555938 277.111219 
L 44.555938 10.999219 
" clip-path="url(#p9f1ed91731)" style="fill: none; stroke: #b0b0b0; stroke-width: 0.8; stroke-linecap: square"/>
     </g>
     <g id="line2d_2">
      <defs>
       <path id="m38f7ba5876" d="M 0 0 
L 0 3.5 
" style="stroke: #000000; stroke-width: 0.8"/>
      </defs>
      <g>
       <use xlink:href="#m38f7ba5876" x="44.555938" y="277.111219" style="stroke: #000000; stroke-width: 0.8"/>
      </g>
     </g>
     <g id="text_1">
      <!-- 350 -->
      <g transform="translate(35.012188 291.709656) scale(0.1 -0.1)">
       <defs>
        <path id="DejaVuSans-33" d="M 2597 2516 
Q 3050 2419 3304 2112 
Q 3559 1806 3559 1356 
Q 3559 666 3084 287 
Q 2609 -91 1734 -91 
Q 1441 -91 1130 -33 
Q 819 25 488 141 
L 488 750 
Q 750 597 1062 519 
Q 1375 441 1716 441 
Q 2309 441 2620 675 
Q 2931 909 2931 1356 
Q 2931 1769 2642 2001 
Q 2353 2234 1838 2234 
L 1294 2234 
L 1294 2753 
L 1863 2753 
Q 2328 2753 2575 2939 
Q 2822 3125 2822 3475 
Q 2822 3834 2567 4026 
Q 2313 4219 1838 4219 
Q 1578 4219 1281 4162 
Q 984 4106 628 3988 
L 628 4550 
Q 988 4650 1302 4700 
Q 1616 4750 1894 4750 
Q 2613 4750 3031 4423 
Q 3450 4097 3450 3541 
Q 3450 3153 3228 2886 
Q 3006 2619 2597 2516 
z
" transform="scale(0.015625)"/>
        <path id="DejaVuSans-35" d="M 691 4666 
L 3169 4666 
L 3169 4134 
L 1269 4134 
L 1269 2991 
Q 1406 3038 1543 3061 
Q 1681 3084 1819 3084 
Q 2600 3084 3056 2656 
Q 3513 2228 3513 1497 
Q 3513 744 3044 326 
Q 2575 -91 1722 -91 
Q 1428 -91 1123 -41 
Q 819 9 494 109 
L 494 744 
Q 775 591 1075 516 
Q 1375 441 1709 441 
Q 2250 441 2565 725 
Q 2881 1009 2881 1497 
Q 2881 1984 2565 2268 
Q 2250 2553 1709 2553 
Q 1456 2553 1204 2497 
Q 953 2441 691 2322 
L 691 4666 
z
" transform="scale(0.015625)"/>
        <path id="DejaVuSans-30" d="M 2034 4250 
Q 1547 4250 1301 3770 
Q 1056 3291 1056 2328 
Q 1056 1369 1301 889 
Q 1547 409 2034 409 
Q 2525 409 2770 889 
Q 3016 1369 3016 2328 
Q 3016 3291 2770 3770 
Q 2525 4250 2034 4250 
z
M 2034 4750 
Q 2819 4750 3233 4129 
Q 3647 3509 3647 2328 
Q 3647 1150 3233 529 
Q 2819 -91 2034 -91 
Q 1250 -91 836 529 
Q 422 1150 422 2328 
Q 422 3509 836 4129 
Q 1250 4750 2034 4750 
z
" transform="scale(0.015625)"/>
       </defs>
       <use xlink:href="#DejaVuSans-33"/>
       <use xlink:href="#DejaVuSans-35" x="63.623047"/>
       <use xlink:href="#DejaVuSans-30" x="127.246094"/>
      </g>
     </g>
    </g>
    <g id="xtick_2">
     <g id="line2d_3">
      <path d="M 77.675938 277.111219 
L 77.675938 10.999219 
" clip-path="url(#p9f1ed91731)" style="fill: none; stroke: #b0b0b0; stroke-width: 0.8; stroke-linecap: square"/>
     </g>
     <g id="line2d_4">
      <g>
       <use xlink:href="#m38f7ba5876" x="77.675938" y="277.111219" style="stroke: #000000; stroke-width: 0.8"/>
      </g>
     </g>
     <g id="text_2">
      <!-- 375 -->
      <g transform="translate(68.132188 291.709656) scale(0.1 -0.1)">
       <defs>
        <path id="DejaVuSans-37" d="M 525 4666 
L 3525 4666 
L 3525 4397 
L 1831 0 
L 1172 0 
L 2766 4134 
L 525 4134 
L 525 4666 
z
" transform="scale(0.015625)"/>
       </defs>
       <use xlink:href="#DejaVuSans-33"/>
       <use xlink:href="#DejaVuSans-37" x="63.623047"/>
       <use xlink:href="#DejaVuSans-35" x="127.246094"/>
      </g>
     </g>
    </g>
    <g id="xtick_3">
     <g id="line2d_5">
      <path d="M 110.795938 277.111219 
L 110.795938 10.999219 
" clip-path="url(#p9f1ed91731)" style="fill: none; stroke: #b0b0b0; stroke-width: 0.8; stroke-linecap: square"/>
     </g>
     <g id="line2d_6">
      <g>
       <use xlink:href="#m38f7ba5876" x="110.795938" y="277.111219" style="stroke: #000000; stroke-width: 0.8"/>
      </g>
     </g>
     <g id="text_3">
      <!-- 400 -->
      <g transform="translate(101.252188 291.709656) scale(0.1 -0.1)">
       <defs>
        <path id="DejaVuSans-34" d="M 2419 4116 
L 825 1625 
L 2419 1625 
L 2419 4116 
z
M 2253 4666 
L 3047 4666 
L 3047 1625 
L 3713 1625 
L 3713 1100 
L 3047 1100 
L 3047 0 
L 2419 0 
L 2419 1100 
L 313 1100 
L 313 1709 
L 2253 4666 
z
" transform="scale(0.015625)"/>
       </defs>
       <use xlink:href="#DejaVuSans-34"/>
       <use xlink:href="#DejaVuSans-30" x="63.623047"/>
       <use xlink:href="#DejaVuSans-30" x="127.246094"/>
      </g>
     </g>
    </g>
    <g id="xtick_4">
     <g id="line2d_7">
      <path d="M 143.915938 277.111219 
L 143.915938 10.999219 
" clip-path="url(#p9f1ed91731)" style="fill: none; stroke: #b0b0b0; stroke-width: 0.8; stroke-linecap: square"/>
     </g>
     <g id="line2d_8">
      <g>
       <use xlink:href="#m38f7ba5876" x="143.915938" y="277.111219" style="stroke: #000000; stroke-width: 0.8"/>
      </g>
     </g>
     <g id="text_4">
      <!-- 425 -->
      <g transform="translate(134.372188 291.709656) scale(0.1 -0.1)">
       <defs>
        <path id="DejaVuSans-32" d="M 1228 531 
L 3431 531 
L 3431 0 
L 469 0 
L 469 531 
Q 828 903 1448 1529 
Q 2069 2156 2228 2338 
Q 2531 2678 2651 2914 
Q 2772 3150 2772 3378 
Q 2772 3750 2511 3984 
Q 2250 4219 1831 4219 
Q 1534 4219 1204 4116 
Q 875 4013 500 3803 
L 500 4441 
Q 881 4594 1212 4672 
Q 1544 4750 1819 4750 
Q 2544 4750 2975 4387 
Q 3406 4025 3406 3419 
Q 3406 3131 3298 2873 
Q 3191 2616 2906 2266 
Q 2828 2175 2409 1742 
Q 1991 1309 1228 531 
z
" transform="scale(0.015625)"/>
       </defs>
       <use xlink:href="#DejaVuSans-34"/>
       <use xlink:href="#DejaVuSans-32" x="63.623047"/>
       <use xlink:href="#DejaVuSans-35" x="127.246094"/>
      </g>
     </g>
    </g>
    <g id="xtick_5">
     <g id="line2d_9">
      <path d="M 177.035938 277.111219 
L 177.035938 10.999219 
" clip-path="url(#p9f1ed91731)" style="fill: none; stroke: #b0b0b0; stroke-width: 0.8; stroke-linecap: square"/>
     </g>
     <g id="line2d_10">
      <g>
       <use xlink:href="#m38f7ba5876" x="177.035938" y="277.111219" style="stroke: #000000; stroke-width: 0.8"/>
      </g>
     </g>
     <g id="text_5">
      <!-- 450 -->
      <g transform="translate(167.492188 291.709656) scale(0.1 -0.1)">
       <use xlink:href="#DejaVuSans-34"/>
       <use xlink:href="#DejaVuSans-35" x="63.623047"/>
       <use xlink:href="#DejaVuSans-30" x="127.246094"/>
      </g>
     </g>
    </g>
    <g id="xtick_6">
     <g id="line2d_11">
      <path d="M 210.155938 277.111219 
L 210.155938 10.999219 
" clip-path="url(#p9f1ed91731)" style="fill: none; stroke: #b0b0b0; stroke-width: 0.8; stroke-linecap: square"/>
     </g>
     <g id="line2d_12">
      <g>
       <use xlink:href="#m38f7ba5876" x="210.155938" y="277.111219" style="stroke: #000000; stroke-width: 0.8"/>
      </g>
     </g>
     <g id="text_6">
      <!-- 475 -->
      <g transform="translate(200.612188 291.709656) scale(0.1 -0.1)">
       <use xlink:href="#DejaVuSans-34"/>
       <use xlink:href="#DejaVuSans-37" x="63.623047"/>
       <use xlink:href="#DejaVuSans-35" x="127.246094"/>
      </g>
     </g>
    </g>
    <g id="xtick_7">
     <g id="line2d_13">
      <path d="M 243.275938 277.111219 
L 243.275938 10.999219 
" clip-path="url(#p9f1ed91731)" style="fill: none; stroke: #b0b0b0; stroke-width: 0.8; stroke-linecap: square"/>
     </g>
     <g id="line2d_14">
      <g>
       <use xlink:href="#m38f7ba5876" x="243.275938" y="277.111219" style="stroke: #000000; stroke-width: 0.8"/>
      </g>
     </g>
     <g id="text_7">
      <!-- 500 -->
      <g transform="translate(233.732188 291.709656) scale(0.1 -0.1)">
       <use xlink:href="#DejaVuSans-35"/>
       <use xlink:href="#DejaVuSans-30" x="63.623047"/>
       <use xlink:href="#DejaVuSans-30" x="127.246094"/>
      </g>
     </g>
    </g>
    <g id="xtick_8">
     <g id="line2d_15">
      <path d="M 276.395938 277.111219 
L 276.395938 10.999219 
" clip-path="url(#p9f1ed91731)" style="fill: none; stroke: #b0b0b0; stroke-width: 0.8; stroke-linecap: square"/>
     </g>
     <g id="line2d_16">
      <g>
       <use xlink:href="#m38f7ba5876" x="276.395938" y="277.111219" style="stroke: #000000; stroke-width: 0.8"/>
      </g>
     </g>
     <g id="text_8">
      <!-- 525 -->
      <g transform="translate(266.852188 291.709656) scale(0.1 -0.1)">
       <use xlink:href="#DejaVuSans-35"/>
       <use xlink:href="#DejaVuSans-32" x="63.623047"/>
       <use xlink:href="#DejaVuSans-35" x="127.246094"/>
      </g>
     </g>
    </g>
    <g id="xtick_9">
     <g id="line2d_17">
      <path d="M 309.515938 277.111219 
L 309.515938 10.999219 
" clip-path="url(#p9f1ed91731)" style="fill: none; stroke: #b0b0b0; stroke-width: 0.8; stroke-linecap: square"/>
     </g>
     <g id="line2d_18">
      <g>
       <use xlink:href="#m38f7ba5876" x="309.515938" y="277.111219" style="stroke: #000000; stroke-width: 0.8"/>
      </g>
     </g>
     <g id="text_9">
      <!-- 550 -->
      <g transform="translate(299.972188 291.709656) scale(0.1 -0.1)">
       <use xlink:href="#DejaVuSans-35"/>
       <use xlink:href="#DejaVuSans-35" x="63.623047"/>
       <use xlink:href="#DejaVuSans-30" x="127.246094"/>
      </g>
     </g>
    </g>
    <g id="text_10">
     <!-- time -->
     <g transform="translate(161.789375 306.907469) scale(0.12 -0.12)">
      <defs>
       <path id="DejaVuSans-Bold-74" d="M 1759 4494 
L 1759 3500 
L 2913 3500 
L 2913 2700 
L 1759 2700 
L 1759 1216 
Q 1759 972 1856 886 
Q 1953 800 2241 800 
L 2816 800 
L 2816 0 
L 1856 0 
Q 1194 0 917 276 
Q 641 553 641 1216 
L 641 2700 
L 84 2700 
L 84 3500 
L 641 3500 
L 641 4494 
L 1759 4494 
z
" transform="scale(0.015625)"/>
       <path id="DejaVuSans-Bold-69" d="M 538 3500 
L 1656 3500 
L 1656 0 
L 538 0 
L 538 3500 
z
M 538 4863 
L 1656 4863 
L 1656 3950 
L 538 3950 
L 538 4863 
z
" transform="scale(0.015625)"/>
       <path id="DejaVuSans-Bold-6d" d="M 3781 2919 
Q 3994 3244 4286 3414 
Q 4578 3584 4928 3584 
Q 5531 3584 5847 3212 
Q 6163 2841 6163 2131 
L 6163 0 
L 5038 0 
L 5038 1825 
Q 5041 1866 5042 1909 
Q 5044 1953 5044 2034 
Q 5044 2406 4934 2573 
Q 4825 2741 4581 2741 
Q 4263 2741 4089 2478 
Q 3916 2216 3909 1719 
L 3909 0 
L 2784 0 
L 2784 1825 
Q 2784 2406 2684 2573 
Q 2584 2741 2328 2741 
Q 2006 2741 1831 2477 
Q 1656 2213 1656 1722 
L 1656 0 
L 531 0 
L 531 3500 
L 1656 3500 
L 1656 2988 
Q 1863 3284 2130 3434 
Q 2397 3584 2719 3584 
Q 3081 3584 3359 3409 
Q 3638 3234 3781 2919 
z
" transform="scale(0.015625)"/>
       <path id="DejaVuSans-Bold-65" d="M 4031 1759 
L 4031 1441 
L 1416 1441 
Q 1456 1047 1700 850 
Q 1944 653 2381 653 
Q 2734 653 3104 758 
Q 3475 863 3866 1075 
L 3866 213 
Q 3469 63 3072 -14 
Q 2675 -91 2278 -91 
Q 1328 -91 801 392 
Q 275 875 275 1747 
Q 275 2603 792 3093 
Q 1309 3584 2216 3584 
Q 3041 3584 3536 3087 
Q 4031 2591 4031 1759 
z
M 2881 2131 
Q 2881 2450 2695 2645 
Q 2509 2841 2209 2841 
Q 1884 2841 1681 2658 
Q 1478 2475 1428 2131 
L 2881 2131 
z
" transform="scale(0.015625)"/>
      </defs>
      <use xlink:href="#DejaVuSans-Bold-74"/>
      <use xlink:href="#DejaVuSans-Bold-69" x="47.802734"/>
      <use xlink:href="#DejaVuSans-Bold-6d" x="82.080078"/>
      <use xlink:href="#DejaVuSans-Bold-65" x="186.279297"/>
     </g>
    </g>
   </g>
   <g id="matplotlib.axis_2">
    <g id="ytick_1">
     <g id="line2d_19">
      <path d="M 44.555938 277.111219 
L 309.515938 277.111219 
" clip-path="url(#p9f1ed91731)" style="fill: none; stroke: #b0b0b0; stroke-width: 0.8; stroke-linecap: square"/>
     </g>
     <g id="line2d_20">
      <defs>
       <path id="m773b72e01a" d="M 0 0 
L -3.5 0 
" style="stroke: #000000; stroke-width: 0.8"/>
      </defs>
      <g>
       <use xlink:href="#m773b72e01a" x="44.555938" y="277.111219" style="stroke: #000000; stroke-width: 0.8"/>
      </g>
     </g>
     <g id="text_11">
      <!-- −2 -->
      <g transform="translate(22.81375 280.910437) scale(0.1 -0.1)">
       <defs>
        <path id="DejaVuSans-2212" d="M 678 2272 
L 4684 2272 
L 4684 1741 
L 678 1741 
L 678 2272 
z
" transform="scale(0.015625)"/>
       </defs>
       <use xlink:href="#DejaVuSans-2212"/>
       <use xlink:href="#DejaVuSans-32" x="83.789062"/>
      </g>
     </g>
    </g>
    <g id="ytick_2">
     <g id="line2d_21">
      <path d="M 44.555938 223.888819 
L 309.515938 223.888819 
" clip-path="url(#p9f1ed91731)" style="fill: none; stroke: #b0b0b0; stroke-width: 0.8; stroke-linecap: square"/>
     </g>
     <g id="line2d_22">
      <g>
       <use xlink:href="#m773b72e01a" x="44.555938" y="223.888819" style="stroke: #000000; stroke-width: 0.8"/>
      </g>
     </g>
     <g id="text_12">
      <!-- −1 -->
      <g transform="translate(22.81375 227.688037) scale(0.1 -0.1)">
       <defs>
        <path id="DejaVuSans-31" d="M 794 531 
L 1825 531 
L 1825 4091 
L 703 3866 
L 703 4441 
L 1819 4666 
L 2450 4666 
L 2450 531 
L 3481 531 
L 3481 0 
L 794 0 
L 794 531 
z
" transform="scale(0.015625)"/>
       </defs>
       <use xlink:href="#DejaVuSans-2212"/>
       <use xlink:href="#DejaVuSans-31" x="83.789062"/>
      </g>
     </g>
    </g>
    <g id="ytick_3">
     <g id="line2d_23">
      <path d="M 44.555938 170.666419 
L 309.515938 170.666419 
" clip-path="url(#p9f1ed91731)" style="fill: none; stroke: #b0b0b0; stroke-width: 0.8; stroke-linecap: square"/>
     </g>
     <g id="line2d_24">
      <g>
       <use xlink:href="#m773b72e01a" x="44.555938" y="170.666419" style="stroke: #000000; stroke-width: 0.8"/>
      </g>
     </g>
     <g id="text_13">
      <!-- 0 -->
      <g transform="translate(31.193438 174.465637) scale(0.1 -0.1)">
       <use xlink:href="#DejaVuSans-30"/>
      </g>
     </g>
    </g>
    <g id="ytick_4">
     <g id="line2d_25">
      <path d="M 44.555938 117.444019 
L 309.515938 117.444019 
" clip-path="url(#p9f1ed91731)" style="fill: none; stroke: #b0b0b0; stroke-width: 0.8; stroke-linecap: square"/>
     </g>
     <g id="line2d_26">
      <g>
       <use xlink:href="#m773b72e01a" x="44.555938" y="117.444019" style="stroke: #000000; stroke-width: 0.8"/>
      </g>
     </g>
     <g id="text_14">
      <!-- 1 -->
      <g transform="translate(31.193438 121.243237) scale(0.1 -0.1)">
       <use xlink:href="#DejaVuSans-31"/>
      </g>
     </g>
    </g>
    <g id="ytick_5">
     <g id="line2d_27">
      <path d="M 44.555938 64.221619 
L 309.515938 64.221619 
" clip-path="url(#p9f1ed91731)" style="fill: none; stroke: #b0b0b0; stroke-width: 0.8; stroke-linecap: square"/>
     </g>
     <g id="line2d_28">
      <g>
       <use xlink:href="#m773b72e01a" x="44.555938" y="64.221619" style="stroke: #000000; stroke-width: 0.8"/>
      </g>
     </g>
     <g id="text_15">
      <!-- 2 -->
      <g transform="translate(31.193438 68.020837) scale(0.1 -0.1)">
       <use xlink:href="#DejaVuSans-32"/>
      </g>
     </g>
    </g>
    <g id="ytick_6">
     <g id="line2d_29">
      <path d="M 44.555938 10.999219 
L 309.515938 10.999219 
" clip-path="url(#p9f1ed91731)" style="fill: none; stroke: #b0b0b0; stroke-width: 0.8; stroke-linecap: square"/>
     </g>
     <g id="line2d_30">
      <g>
       <use xlink:href="#m773b72e01a" x="44.555938" y="10.999219" style="stroke: #000000; stroke-width: 0.8"/>
      </g>
     </g>
     <g id="text_16">
      <!-- 3 -->
      <g transform="translate(31.193438 14.798437) scale(0.1 -0.1)">
       <use xlink:href="#DejaVuSans-33"/>
      </g>
     </g>
    </g>
    <g id="text_17">
     <!-- Amplituda -->
     <g transform="translate(16.318125 178.842094) rotate(-90) scale(0.12 -0.12)">
      <defs>
       <path id="DejaVuSans-Bold-41" d="M 3419 850 
L 1538 850 
L 1241 0 
L 31 0 
L 1759 4666 
L 3194 4666 
L 4922 0 
L 3713 0 
L 3419 850 
z
M 1838 1716 
L 3116 1716 
L 2478 3572 
L 1838 1716 
z
" transform="scale(0.015625)"/>
       <path id="DejaVuSans-Bold-70" d="M 1656 506 
L 1656 -1331 
L 538 -1331 
L 538 3500 
L 1656 3500 
L 1656 2988 
Q 1888 3294 2169 3439 
Q 2450 3584 2816 3584 
Q 3463 3584 3878 3070 
Q 4294 2556 4294 1747 
Q 4294 938 3878 423 
Q 3463 -91 2816 -91 
Q 2450 -91 2169 54 
Q 1888 200 1656 506 
z
M 2400 2772 
Q 2041 2772 1848 2508 
Q 1656 2244 1656 1747 
Q 1656 1250 1848 986 
Q 2041 722 2400 722 
Q 2759 722 2948 984 
Q 3138 1247 3138 1747 
Q 3138 2247 2948 2509 
Q 2759 2772 2400 2772 
z
" transform="scale(0.015625)"/>
       <path id="DejaVuSans-Bold-6c" d="M 538 4863 
L 1656 4863 
L 1656 0 
L 538 0 
L 538 4863 
z
" transform="scale(0.015625)"/>
       <path id="DejaVuSans-Bold-75" d="M 500 1363 
L 500 3500 
L 1625 3500 
L 1625 3150 
Q 1625 2866 1622 2436 
Q 1619 2006 1619 1863 
Q 1619 1441 1641 1255 
Q 1663 1069 1716 984 
Q 1784 875 1895 815 
Q 2006 756 2150 756 
Q 2500 756 2700 1025 
Q 2900 1294 2900 1772 
L 2900 3500 
L 4019 3500 
L 4019 0 
L 2900 0 
L 2900 506 
Q 2647 200 2364 54 
Q 2081 -91 1741 -91 
Q 1134 -91 817 281 
Q 500 653 500 1363 
z
" transform="scale(0.015625)"/>
       <path id="DejaVuSans-Bold-64" d="M 2919 2988 
L 2919 4863 
L 4044 4863 
L 4044 0 
L 2919 0 
L 2919 506 
Q 2688 197 2409 53 
Q 2131 -91 1766 -91 
Q 1119 -91 703 423 
Q 288 938 288 1747 
Q 288 2556 703 3070 
Q 1119 3584 1766 3584 
Q 2128 3584 2408 3439 
Q 2688 3294 2919 2988 
z
M 2181 722 
Q 2541 722 2730 984 
Q 2919 1247 2919 1747 
Q 2919 2247 2730 2509 
Q 2541 2772 2181 2772 
Q 1825 2772 1636 2509 
Q 1447 2247 1447 1747 
Q 1447 1247 1636 984 
Q 1825 722 2181 722 
z
" transform="scale(0.015625)"/>
       <path id="DejaVuSans-Bold-61" d="M 2106 1575 
Q 1756 1575 1579 1456 
Q 1403 1338 1403 1106 
Q 1403 894 1545 773 
Q 1688 653 1941 653 
Q 2256 653 2472 879 
Q 2688 1106 2688 1447 
L 2688 1575 
L 2106 1575 
z
M 3816 1997 
L 3816 0 
L 2688 0 
L 2688 519 
Q 2463 200 2181 54 
Q 1900 -91 1497 -91 
Q 953 -91 614 226 
Q 275 544 275 1050 
Q 275 1666 698 1953 
Q 1122 2241 2028 2241 
L 2688 2241 
L 2688 2328 
Q 2688 2594 2478 2717 
Q 2269 2841 1825 2841 
Q 1466 2841 1156 2769 
Q 847 2697 581 2553 
L 581 3406 
Q 941 3494 1303 3539 
Q 1666 3584 2028 3584 
Q 2975 3584 3395 3211 
Q 3816 2838 3816 1997 
z
" transform="scale(0.015625)"/>
      </defs>
      <use xlink:href="#DejaVuSans-Bold-41"/>
      <use xlink:href="#DejaVuSans-Bold-6d" x="77.392578"/>
      <use xlink:href="#DejaVuSans-Bold-70" x="181.591797"/>
      <use xlink:href="#DejaVuSans-Bold-6c" x="253.173828"/>
      <use xlink:href="#DejaVuSans-Bold-69" x="287.451172"/>
      <use xlink:href="#DejaVuSans-Bold-74" x="321.728516"/>
      <use xlink:href="#DejaVuSans-Bold-75" x="369.53125"/>
      <use xlink:href="#DejaVuSans-Bold-64" x="440.722656"/>
      <use xlink:href="#DejaVuSans-Bold-61" x="512.304688"/>
     </g>
    </g>
   </g>
   <g id="line2d_31">
    <path d="M 43.231138 186.874303 
L 44.555938 279.064913 
L 45.880738 261.056134 
L 47.205538 204.201685 
L 48.530338 270.344774 
L 49.855138 179.918261 
L 51.179938 209.240491 
L 52.504738 215.152273 
L 53.829538 197.20701 
L 55.154338 200.56899 
L 56.479138 176.878461 
L 57.803938 150.009303 
L 59.128738 167.33327 
L 60.453538 148.145649 
L 61.778338 137.485079 
L 63.103138 101.034137 
L 64.427938 191.047823 
L 65.752738 100.346376 
L 67.077538 54.311372 
L 68.402338 141.309385 
L 69.727138 97.353746 
L 71.051938 98.557184 
L 72.376738 96.126243 
L 73.701538 72.46982 
L 75.026338 134.046072 
L 76.351138 137.654119 
L 77.675938 155.244841 
L 79.000738 136.706819 
L 80.325538 174.303674 
L 81.650338 224.15311 
L 82.975138 187.106953 
L 85.624738 201.39495 
L 86.949538 261.466611 
L 88.274338 246.811754 
L 89.599138 224.819521 
L 90.923938 245.487185 
L 92.248738 223.729271 
L 93.573538 236.390513 
L 94.898338 224.976284 
L 96.223138 232.473075 
L 97.547938 173.727454 
L 98.872738 192.255047 
L 100.197538 194.912621 
L 101.522338 165.569633 
L 102.847138 132.05957 
L 104.171938 184.904749 
L 105.496738 149.615809 
L 106.821538 136.847497 
L 108.146338 85.228369 
L 109.471138 131.803857 
L 110.795938 139.813337 
L 112.120738 140.935907 
L 113.445538 123.299178 
L 114.770338 169.975409 
L 116.095138 55.763462 
L 117.419938 207.922514 
L 118.744738 116.160042 
L 120.069538 178.104647 
L 121.394338 211.062833 
L 122.719138 183.008479 
L 124.043938 181.60791 
L 125.368738 217.953698 
L 126.693538 202.430605 
L 128.018338 138.733536 
L 129.343138 264.058001 
L 130.667938 247.432751 
L 131.992738 204.412488 
L 133.317538 201.042406 
L 134.642338 176.189015 
L 135.967138 193.610818 
L 137.291938 196.855598 
L 138.616738 226.936773 
L 139.941538 182.382954 
L 141.266338 171.658643 
L 142.591138 191.31337 
L 143.915938 186.836643 
L 145.240738 153.785542 
L 146.565538 136.709556 
L 147.890338 132.56758 
L 149.215138 143.044847 
L 150.539938 107.337248 
L 151.864738 121.59194 
L 153.189538 106.759102 
L 154.514338 134.267347 
L 155.839138 108.675363 
L 157.163938 101.338837 
L 158.488738 109.663548 
L 159.813538 108.743796 
L 161.138338 148.177933 
L 162.463138 191.48065 
L 163.787938 165.602258 
L 165.112738 183.949955 
L 166.437538 185.168058 
L 167.762338 260.913811 
L 169.087138 231.630987 
L 170.411938 188.344642 
L 171.736738 243.693794 
L 173.061538 247.937287 
L 174.386338 225.792416 
L 175.711138 261.567908 
L 177.035938 159.725553 
L 178.360738 229.973269 
L 179.685538 251.684417 
L 181.010338 212.201664 
L 182.335138 232.193322 
L 183.659938 153.104644 
L 184.984738 145.756607 
L 186.309538 179.709638 
L 187.634338 156.833674 
L 188.959138 136.307394 
L 190.283938 120.338392 
L 191.608738 173.459118 
L 192.933538 117.497516 
L 194.258338 95.344981 
L 195.583138 110.900187 
L 196.907938 101.411178 
L 198.232738 112.483515 
L 199.557538 72.731421 
L 200.882338 114.340118 
L 202.207138 104.038161 
L 203.531938 120.783787 
L 204.856738 127.662182 
L 206.181538 133.321997 
L 207.506338 213.152292 
L 208.831138 170.593303 
L 210.155938 212.544932 
L 211.480738 225.667167 
L 215.455138 248.311784 
L 216.779938 220.413911 
L 218.104738 300.638205 
L 219.429538 171.621292 
L 220.754338 232.626062 
L 222.079138 247.673225 
L 223.403938 202.21453 
L 224.728738 254.563668 
L 226.053538 143.98118 
L 227.378338 162.193211 
L 228.703138 123.651887 
L 230.027938 149.478154 
L 231.352738 111.884826 
L 232.677538 88.736777 
L 234.002338 130.541043 
L 235.327138 126.966474 
L 236.651938 145.342041 
L 237.976738 110.097227 
L 239.301538 111.365279 
L 240.626338 83.796982 
L 241.951138 94.048283 
L 243.275938 132.755145 
L 244.600738 163.702937 
L 245.925538 177.471813 
L 247.250338 147.29531 
L 248.575138 164.685558 
L 249.899938 206.030007 
L 251.224738 218.055402 
L 252.549538 215.731891 
L 253.874338 201.556937 
L 255.199138 177.9935 
L 256.523938 203.28122 
L 257.848738 250.494835 
L 259.173538 193.526329 
L 260.498338 247.420728 
L 261.823138 217.083057 
L 263.147938 223.235791 
L 264.472738 258.360641 
L 265.797538 199.771489 
L 267.122338 224.805062 
L 268.447138 171.414054 
L 269.771938 165.370903 
L 271.096738 174.443598 
L 272.421538 172.013831 
L 273.746338 136.019349 
L 275.071138 132.84527 
L 276.395938 165.013085 
L 277.720738 184.89235 
L 279.045538 143.882376 
L 280.370338 74.635488 
L 281.695138 75.814582 
L 283.019938 107.920082 
L 284.344738 148.324262 
L 285.669538 130.860963 
L 286.994338 208.742205 
L 288.319138 135.480936 
L 289.643938 140.245544 
L 290.968738 142.590944 
L 292.293538 171.850168 
L 293.618338 206.67623 
L 294.943138 184.819981 
L 296.267938 222.842749 
L 297.592738 230.759353 
L 298.917538 278.695314 
L 300.242338 243.564091 
L 301.567138 227.972517 
L 302.891938 250.438578 
L 304.216738 187.741566 
L 305.541538 230.050001 
L 306.866338 232.641074 
L 308.191138 216.43008 
L 309.515938 175.255008 
L 310.840738 187.628895 
L 310.840738 187.628895 
" clip-path="url(#p9f1ed91731)" style="fill: none; stroke: #1f77b4; stroke-width: 1.5; stroke-linecap: square"/>
   </g>
   <g id="line2d_32">
    <path d="M 43.231138 170.635322 
L 44.555938 181.550737 
L 45.880738 194.658295 
L 47.205538 205.227132 
L 48.530338 211.595608 
L 49.855138 215.494688 
L 51.179938 216.930555 
L 52.504738 219.904553 
L 53.829538 221.724998 
L 55.154338 222.178218 
L 56.479138 221.552145 
L 57.803938 224.557001 
L 59.128738 225.405788 
L 60.453538 214.954832 
L 61.778338 176.356525 
L 63.103138 123.468636 
L 64.427938 79.934184 
L 65.752738 67.075644 
L 67.077538 77.755066 
L 68.402338 97.262695 
L 69.727138 118.95832 
L 71.051938 136.330238 
L 72.376738 144.263994 
L 73.701538 144.456659 
L 75.026338 141.572515 
L 76.351138 141.042087 
L 77.675938 144.217423 
L 79.000738 154.216128 
L 80.325538 163.324962 
L 82.975138 177.895382 
L 84.299938 186.170832 
L 85.624738 191.859791 
L 88.274338 201.215547 
L 89.599138 204.122857 
L 90.923938 206.111145 
L 92.248738 208.31934 
L 93.573538 208.968403 
L 94.898338 212.784619 
L 96.223138 206.394298 
L 97.547938 178.658743 
L 100.197538 75.659247 
L 101.522338 51.151886 
L 102.847138 57.946767 
L 104.171938 75.706603 
L 106.821538 115.838745 
L 108.146338 125.620647 
L 109.471138 127.552804 
L 110.795938 127.550155 
L 112.120738 127.22133 
L 113.445538 131.590111 
L 114.770338 141.678343 
L 117.419938 164.813753 
L 118.744738 170.918799 
L 120.069538 179.252391 
L 121.394338 189.231632 
L 122.719138 196.793722 
L 124.043938 201.336132 
L 125.368738 204.77855 
L 126.693538 205.018239 
L 128.018338 208.567915 
L 129.343138 207.347566 
L 130.667938 210.938396 
L 131.992738 210.596831 
L 133.317538 191.455846 
L 134.642338 148.394838 
L 135.967138 96.399327 
L 137.291938 61.980083 
L 138.616738 59.748774 
L 139.941538 73.635166 
L 141.266338 106.318158 
L 142.591138 127.968607 
L 143.915938 136.885283 
L 145.240738 138.488926 
L 146.565538 135.461119 
L 147.890338 134.542287 
L 149.215138 140.601638 
L 150.539938 149.568815 
L 151.864738 160.802477 
L 153.189538 168.401271 
L 154.514338 177.847855 
L 155.839138 190.434549 
L 157.163938 199.431422 
L 158.488738 207.394738 
L 159.813538 211.216242 
L 161.138338 213.374131 
L 162.463138 215.263868 
L 163.787938 214.936055 
L 165.112738 218.7651 
L 166.437538 221.777293 
L 167.762338 215.132379 
L 169.087138 183.359929 
L 170.411938 138.504889 
L 171.736738 98.484564 
L 173.061538 88.178306 
L 174.386338 100.340329 
L 177.035938 146.545205 
L 178.360738 161.005041 
L 179.685538 165.6978 
L 181.010338 161.798855 
L 182.335138 156.575753 
L 183.659938 156.814084 
L 184.984738 160.365377 
L 187.634338 173.649791 
L 192.933538 209.245928 
L 194.258338 212.636311 
L 195.583138 215.429624 
L 196.907938 214.402861 
L 198.232738 216.276975 
L 199.557538 218.514453 
L 200.882338 218.651443 
L 202.207138 213.712371 
L 203.531938 187.767206 
L 206.181538 97.804828 
L 207.506338 81.325594 
L 208.831138 88.359464 
L 210.155938 107.508914 
L 211.480738 131.51001 
L 212.805538 148.963854 
L 214.130338 158.671468 
L 215.455138 158.385559 
L 216.779938 152.747143 
L 218.104738 151.664067 
L 219.429538 154.573926 
L 220.754338 164.704458 
L 222.079138 172.634073 
L 227.378338 199.648686 
L 228.703138 203.447918 
L 230.027938 204.451425 
L 231.352738 206.283252 
L 232.677538 210.332813 
L 234.002338 212.049317 
L 235.327138 214.719688 
L 236.651938 216.879779 
L 237.976738 217.327835 
L 239.301538 197.031309 
L 240.626338 153.792951 
L 241.951138 101.229513 
L 243.275938 67.877424 
L 244.600738 65.638781 
L 245.925538 81.680232 
L 247.250338 110.731281 
L 248.575138 127.225394 
L 249.899938 137.132491 
L 251.224738 136.315975 
L 252.549538 132.751402 
L 253.874338 130.270274 
L 255.199138 137.473351 
L 256.523938 148.236137 
L 259.173538 166.376836 
L 260.498338 173.07093 
L 261.823138 181.101272 
L 263.147938 191.828179 
L 265.797538 202.11833 
L 267.122338 204.523005 
L 268.447138 205.635817 
L 271.096738 210.796293 
L 272.421538 214.365406 
L 273.746338 219.063325 
L 275.071138 222.509353 
L 276.395938 217.702125 
L 277.720738 190.597461 
L 280.370338 91.149503 
L 281.695138 68.056215 
L 283.019938 74.985507 
L 284.344738 93.213638 
L 286.994338 134.511357 
L 288.319138 145.736848 
L 289.643938 148.78716 
L 290.968738 145.720465 
L 292.293538 145.305866 
L 293.618338 151.707684 
L 294.943138 161.253452 
L 296.267938 169.464862 
L 297.592738 176.590411 
L 298.917538 186.996352 
L 300.242338 193.682845 
L 301.567138 204.777239 
L 302.891938 208.124415 
L 304.216738 214.173351 
L 305.541538 214.762118 
L 306.866338 215.62021 
L 308.191138 218.241137 
L 309.515938 220.439622 
L 310.840738 224.176413 
L 310.840738 224.176413 
" clip-path="url(#p9f1ed91731)" style="fill: none; stroke-dasharray: 5.55,2.4; stroke-dashoffset: 0; stroke: #ff7f0e; stroke-width: 1.5"/>
   </g>
   <g id="patch_3">
    <path d="M 44.555938 277.111219 
L 44.555938 10.999219 
" style="fill: none; stroke: #000000; stroke-width: 0.8; stroke-linejoin: miter; stroke-linecap: square"/>
   </g>
   <g id="patch_4">
    <path d="M 309.515938 277.111219 
L 309.515938 10.999219 
" style="fill: none; stroke: #000000; stroke-width: 0.8; stroke-linejoin: miter; stroke-linecap: square"/>
   </g>
   <g id="patch_5">
    <path d="M 44.555938 277.111219 
L 309.515938 277.111219 
" style="fill: none; stroke: #000000; stroke-width: 0.8; stroke-linejoin: miter; stroke-linecap: square"/>
   </g>
   <g id="patch_6">
    <path d="M 44.555938 10.999219 
L 309.515938 10.999219 
" style="fill: none; stroke: #000000; stroke-width: 0.8; stroke-linejoin: miter; stroke-linecap: square"/>
   </g>
   <g id="legend_1">
    <g id="patch_7">
     <path d="M 317.215137 77.035219 
L 415.264513 77.035219 
Q 417.664513 77.035219 417.664513 74.635219 
L 417.664513 13.399219 
Q 417.664513 10.999219 415.264513 10.999219 
L 317.215137 10.999219 
Q 314.815137 10.999219 314.815137 13.399219 
L 314.815137 74.635219 
Q 314.815137 77.035219 317.215137 77.035219 
z
" style="fill: #ffffff; opacity: 0.8; stroke: #cccccc; stroke-linejoin: miter"/>
    </g>
    <g id="line2d_33">
     <path d="M 319.615138 28.683844 
L 331.615138 28.683844 
L 343.615138 28.683844 
" style="fill: none; stroke: #1f77b4; stroke-width: 1.5; stroke-linecap: square"/>
    </g>
    <g id="text_18">
     <!-- output of -->
     <g transform="translate(353.215138 24.917344) scale(0.12 -0.12)">
      <defs>
       <path id="DejaVuSans-6f" d="M 1959 3097 
Q 1497 3097 1228 2736 
Q 959 2375 959 1747 
Q 959 1119 1226 758 
Q 1494 397 1959 397 
Q 2419 397 2687 759 
Q 2956 1122 2956 1747 
Q 2956 2369 2687 2733 
Q 2419 3097 1959 3097 
z
M 1959 3584 
Q 2709 3584 3137 3096 
Q 3566 2609 3566 1747 
Q 3566 888 3137 398 
Q 2709 -91 1959 -91 
Q 1206 -91 779 398 
Q 353 888 353 1747 
Q 353 2609 779 3096 
Q 1206 3584 1959 3584 
z
" transform="scale(0.015625)"/>
       <path id="DejaVuSans-75" d="M 544 1381 
L 544 3500 
L 1119 3500 
L 1119 1403 
Q 1119 906 1312 657 
Q 1506 409 1894 409 
Q 2359 409 2629 706 
Q 2900 1003 2900 1516 
L 2900 3500 
L 3475 3500 
L 3475 0 
L 2900 0 
L 2900 538 
Q 2691 219 2414 64 
Q 2138 -91 1772 -91 
Q 1169 -91 856 284 
Q 544 659 544 1381 
z
M 1991 3584 
L 1991 3584 
z
" transform="scale(0.015625)"/>
       <path id="DejaVuSans-74" d="M 1172 4494 
L 1172 3500 
L 2356 3500 
L 2356 3053 
L 1172 3053 
L 1172 1153 
Q 1172 725 1289 603 
Q 1406 481 1766 481 
L 2356 481 
L 2356 0 
L 1766 0 
Q 1100 0 847 248 
Q 594 497 594 1153 
L 594 3053 
L 172 3053 
L 172 3500 
L 594 3500 
L 594 4494 
L 1172 4494 
z
" transform="scale(0.015625)"/>
       <path id="DejaVuSans-70" d="M 1159 525 
L 1159 -1331 
L 581 -1331 
L 581 3500 
L 1159 3500 
L 1159 2969 
Q 1341 3281 1617 3432 
Q 1894 3584 2278 3584 
Q 2916 3584 3314 3078 
Q 3713 2572 3713 1747 
Q 3713 922 3314 415 
Q 2916 -91 2278 -91 
Q 1894 -91 1617 61 
Q 1341 213 1159 525 
z
M 3116 1747 
Q 3116 2381 2855 2742 
Q 2594 3103 2138 3103 
Q 1681 3103 1420 2742 
Q 1159 2381 1159 1747 
Q 1159 1113 1420 752 
Q 1681 391 2138 391 
Q 2594 391 2855 752 
Q 3116 1113 3116 1747 
z
" transform="scale(0.015625)"/>
       <path id="DejaVuSans-20" transform="scale(0.015625)"/>
       <path id="DejaVuSans-66" d="M 2375 4863 
L 2375 4384 
L 1825 4384 
Q 1516 4384 1395 4259 
Q 1275 4134 1275 3809 
L 1275 3500 
L 2222 3500 
L 2222 3053 
L 1275 3053 
L 1275 0 
L 697 0 
L 697 3053 
L 147 3053 
L 147 3500 
L 697 3500 
L 697 3744 
Q 697 4328 969 4595 
Q 1241 4863 1831 4863 
L 2375 4863 
z
" transform="scale(0.015625)"/>
      </defs>
      <use xlink:href="#DejaVuSans-6f"/>
      <use xlink:href="#DejaVuSans-75" x="61.181641"/>
      <use xlink:href="#DejaVuSans-74" x="124.560547"/>
      <use xlink:href="#DejaVuSans-70" x="163.769531"/>
      <use xlink:href="#DejaVuSans-75" x="227.246094"/>
      <use xlink:href="#DejaVuSans-74" x="290.625"/>
      <use xlink:href="#DejaVuSans-20" x="329.833984"/>
      <use xlink:href="#DejaVuSans-6f" x="361.621094"/>
      <use xlink:href="#DejaVuSans-66" x="422.802734"/>
     </g>
     <!--  physnet -->
     <g transform="translate(353.215138 38.354719) scale(0.12 -0.12)">
      <defs>
       <path id="DejaVuSans-68" d="M 3513 2113 
L 3513 0 
L 2938 0 
L 2938 2094 
Q 2938 2591 2744 2837 
Q 2550 3084 2163 3084 
Q 1697 3084 1428 2787 
Q 1159 2491 1159 1978 
L 1159 0 
L 581 0 
L 581 4863 
L 1159 4863 
L 1159 2956 
Q 1366 3272 1645 3428 
Q 1925 3584 2291 3584 
Q 2894 3584 3203 3211 
Q 3513 2838 3513 2113 
z
" transform="scale(0.015625)"/>
       <path id="DejaVuSans-79" d="M 2059 -325 
Q 1816 -950 1584 -1140 
Q 1353 -1331 966 -1331 
L 506 -1331 
L 506 -850 
L 844 -850 
Q 1081 -850 1212 -737 
Q 1344 -625 1503 -206 
L 1606 56 
L 191 3500 
L 800 3500 
L 1894 763 
L 2988 3500 
L 3597 3500 
L 2059 -325 
z
" transform="scale(0.015625)"/>
       <path id="DejaVuSans-73" d="M 2834 3397 
L 2834 2853 
Q 2591 2978 2328 3040 
Q 2066 3103 1784 3103 
Q 1356 3103 1142 2972 
Q 928 2841 928 2578 
Q 928 2378 1081 2264 
Q 1234 2150 1697 2047 
L 1894 2003 
Q 2506 1872 2764 1633 
Q 3022 1394 3022 966 
Q 3022 478 2636 193 
Q 2250 -91 1575 -91 
Q 1294 -91 989 -36 
Q 684 19 347 128 
L 347 722 
Q 666 556 975 473 
Q 1284 391 1588 391 
Q 1994 391 2212 530 
Q 2431 669 2431 922 
Q 2431 1156 2273 1281 
Q 2116 1406 1581 1522 
L 1381 1569 
Q 847 1681 609 1914 
Q 372 2147 372 2553 
Q 372 3047 722 3315 
Q 1072 3584 1716 3584 
Q 2034 3584 2315 3537 
Q 2597 3491 2834 3397 
z
" transform="scale(0.015625)"/>
       <path id="DejaVuSans-6e" d="M 3513 2113 
L 3513 0 
L 2938 0 
L 2938 2094 
Q 2938 2591 2744 2837 
Q 2550 3084 2163 3084 
Q 1697 3084 1428 2787 
Q 1159 2491 1159 1978 
L 1159 0 
L 581 0 
L 581 3500 
L 1159 3500 
L 1159 2956 
Q 1366 3272 1645 3428 
Q 1925 3584 2291 3584 
Q 2894 3584 3203 3211 
Q 3513 2838 3513 2113 
z
" transform="scale(0.015625)"/>
       <path id="DejaVuSans-65" d="M 3597 1894 
L 3597 1613 
L 953 1613 
Q 991 1019 1311 708 
Q 1631 397 2203 397 
Q 2534 397 2845 478 
Q 3156 559 3463 722 
L 3463 178 
Q 3153 47 2828 -22 
Q 2503 -91 2169 -91 
Q 1331 -91 842 396 
Q 353 884 353 1716 
Q 353 2575 817 3079 
Q 1281 3584 2069 3584 
Q 2775 3584 3186 3129 
Q 3597 2675 3597 1894 
z
M 3022 2063 
Q 3016 2534 2758 2815 
Q 2500 3097 2075 3097 
Q 1594 3097 1305 2825 
Q 1016 2553 972 2059 
L 3022 2063 
z
" transform="scale(0.015625)"/>
      </defs>
      <use xlink:href="#DejaVuSans-20"/>
      <use xlink:href="#DejaVuSans-70" x="31.787109"/>
      <use xlink:href="#DejaVuSans-68" x="95.263672"/>
      <use xlink:href="#DejaVuSans-79" x="158.642578"/>
      <use xlink:href="#DejaVuSans-73" x="217.822266"/>
      <use xlink:href="#DejaVuSans-6e" x="269.921875"/>
      <use xlink:href="#DejaVuSans-65" x="333.300781"/>
      <use xlink:href="#DejaVuSans-74" x="394.824219"/>
     </g>
    </g>
    <g id="line2d_34">
     <path d="M 319.615138 59.901844 
L 331.615138 59.901844 
L 343.615138 59.901844 
" style="fill: none; stroke-dasharray: 5.55,2.4; stroke-dashoffset: 0; stroke: #ff7f0e; stroke-width: 1.5"/>
    </g>
    <g id="text_19">
     <!-- true_label -->
     <g transform="translate(353.215138 55.968469) scale(0.12 -0.12)">
      <defs>
       <path id="DejaVuSans-72" d="M 2631 2963 
Q 2534 3019 2420 3045 
Q 2306 3072 2169 3072 
Q 1681 3072 1420 2755 
Q 1159 2438 1159 1844 
L 1159 0 
L 581 0 
L 581 3500 
L 1159 3500 
L 1159 2956 
Q 1341 3275 1631 3429 
Q 1922 3584 2338 3584 
Q 2397 3584 2469 3576 
Q 2541 3569 2628 3553 
L 2631 2963 
z
" transform="scale(0.015625)"/>
       <path id="DejaVuSans-5f" d="M 3263 -1063 
L 3263 -1509 
L -63 -1509 
L -63 -1063 
L 3263 -1063 
z
" transform="scale(0.015625)"/>
       <path id="DejaVuSans-6c" d="M 603 4863 
L 1178 4863 
L 1178 0 
L 603 0 
L 603 4863 
z
" transform="scale(0.015625)"/>
       <path id="DejaVuSans-61" d="M 2194 1759 
Q 1497 1759 1228 1600 
Q 959 1441 959 1056 
Q 959 750 1161 570 
Q 1363 391 1709 391 
Q 2188 391 2477 730 
Q 2766 1069 2766 1631 
L 2766 1759 
L 2194 1759 
z
M 3341 1997 
L 3341 0 
L 2766 0 
L 2766 531 
Q 2569 213 2275 61 
Q 1981 -91 1556 -91 
Q 1019 -91 701 211 
Q 384 513 384 1019 
Q 384 1609 779 1909 
Q 1175 2209 1959 2209 
L 2766 2209 
L 2766 2266 
Q 2766 2663 2505 2880 
Q 2244 3097 1772 3097 
Q 1472 3097 1187 3025 
Q 903 2953 641 2809 
L 641 3341 
Q 956 3463 1253 3523 
Q 1550 3584 1831 3584 
Q 2591 3584 2966 3190 
Q 3341 2797 3341 1997 
z
" transform="scale(0.015625)"/>
       <path id="DejaVuSans-62" d="M 3116 1747 
Q 3116 2381 2855 2742 
Q 2594 3103 2138 3103 
Q 1681 3103 1420 2742 
Q 1159 2381 1159 1747 
Q 1159 1113 1420 752 
Q 1681 391 2138 391 
Q 2594 391 2855 752 
Q 3116 1113 3116 1747 
z
M 1159 2969 
Q 1341 3281 1617 3432 
Q 1894 3584 2278 3584 
Q 2916 3584 3314 3078 
Q 3713 2572 3713 1747 
Q 3713 922 3314 415 
Q 2916 -91 2278 -91 
Q 1894 -91 1617 61 
Q 1341 213 1159 525 
L 1159 0 
L 581 0 
L 581 4863 
L 1159 4863 
L 1159 2969 
z
" transform="scale(0.015625)"/>
      </defs>
      <use xlink:href="#DejaVuSans-74"/>
      <use xlink:href="#DejaVuSans-72" x="39.208984"/>
      <use xlink:href="#DejaVuSans-75" x="80.322266"/>
      <use xlink:href="#DejaVuSans-65" x="143.701172"/>
      <use xlink:href="#DejaVuSans-5f" x="205.224609"/>
      <use xlink:href="#DejaVuSans-6c" x="255.224609"/>
      <use xlink:href="#DejaVuSans-61" x="283.007812"/>
      <use xlink:href="#DejaVuSans-62" x="344.287109"/>
      <use xlink:href="#DejaVuSans-65" x="407.763672"/>
      <use xlink:href="#DejaVuSans-6c" x="469.287109"/>
     </g>
     <!-- of PPG -->
     <g transform="translate(353.215138 69.739594) scale(0.12 -0.12)">
      <defs>
       <path id="DejaVuSans-50" d="M 1259 4147 
L 1259 2394 
L 2053 2394 
Q 2494 2394 2734 2622 
Q 2975 2850 2975 3272 
Q 2975 3691 2734 3919 
Q 2494 4147 2053 4147 
L 1259 4147 
z
M 628 4666 
L 2053 4666 
Q 2838 4666 3239 4311 
Q 3641 3956 3641 3272 
Q 3641 2581 3239 2228 
Q 2838 1875 2053 1875 
L 1259 1875 
L 1259 0 
L 628 0 
L 628 4666 
z
" transform="scale(0.015625)"/>
       <path id="DejaVuSans-47" d="M 3809 666 
L 3809 1919 
L 2778 1919 
L 2778 2438 
L 4434 2438 
L 4434 434 
Q 4069 175 3628 42 
Q 3188 -91 2688 -91 
Q 1594 -91 976 548 
Q 359 1188 359 2328 
Q 359 3472 976 4111 
Q 1594 4750 2688 4750 
Q 3144 4750 3555 4637 
Q 3966 4525 4313 4306 
L 4313 3634 
Q 3963 3931 3569 4081 
Q 3175 4231 2741 4231 
Q 1884 4231 1454 3753 
Q 1025 3275 1025 2328 
Q 1025 1384 1454 906 
Q 1884 428 2741 428 
Q 3075 428 3337 486 
Q 3600 544 3809 666 
z
" transform="scale(0.015625)"/>
      </defs>
      <use xlink:href="#DejaVuSans-6f"/>
      <use xlink:href="#DejaVuSans-66" x="61.181641"/>
      <use xlink:href="#DejaVuSans-20" x="96.386719"/>
      <use xlink:href="#DejaVuSans-50" x="128.173828"/>
      <use xlink:href="#DejaVuSans-50" x="188.476562"/>
      <use xlink:href="#DejaVuSans-47" x="248.779297"/>
     </g>
    </g>
   </g>
  </g>
 </g>
 <defs>
  <clipPath id="p9f1ed91731">
   <rect x="44.555938" y="10.999219" width="264.96" height="266.112"/>
  </clipPath>
 </defs>
</svg>
